<svg xmlns="http://www.w3.org/2000/svg" viewBox="0 0 16 16">  
  <defs>  
    <style type="text/css">  
      .outer-fill {  
        fill: #517bcc;  
        fill-opacity: 0.8;  
      }  
      .inner-fill {  
        fill: #FFFF00;  
      }  
    </style>  
  </defs>  
  <title>流程图-过程</title>  
  <!-- 外层矩形 -->  
  <path class="outer-fill" d="M3.5,2h9A3.5,3.5,0,0,1,16,5.5v5A3.5,3.5,0,0,1,12.5,14h-9A3.5,3.5,0,0,1,0,10.5v-5A3.5,3.5,0,0,1,3.5,2Zm0,1A2.5,2.5,0,0,0,1,5.5v5A2.5,2.5,0,0,0,3.5,13h9A2.5,2.5,0,0,0,15,10.5v-5A2.5,2.5,0,0,0,12.5,3Z"/>  
  <!-- 内层矩形（调整为绝对路径可能更清晰，但这里保持相对路径并调整） -->  
  <path class="inner-fill" d="M3.5,2m0,1A2.5,2.5,0,0,0,1,5.5v5A2.5,2.5,0,0,0,3.5,13h9A2.5,2.5,0,0,0,15,10.5v-5A2.5,2.5,0,0,0,12.5,3Z"/>  
  <!-- 注意：这里我调整了内层矩形的起始点和尺寸，以使其看起来更像是一个内部矩形 -->  
</svg>