<svg xmlns="http://www.w3.org/2000/svg" viewBox="0 0 16 16">  
  <defs>  
    <style type="text/css">  
      .outer-fill {  
        fill: #517bcc;  
        fill-opacity: 0.8;  
      }  
      .inner-fill {  
        fill: #FFFF00; /* 直接设置红色 */  
      }  
    </style>  
  </defs>  
  <title>流程图-过程</title>  
  <!-- 外层矩形 -->  
  <path class="outer-fill" d="M1.5,2h13A1.5,1.5,0,0,1,16,3.5v9A1.5,1.5,0,0,1,14.5,14H1.5A1.5,1.5,0,0,1,0,12.5v-9A1.5,1.5,0,0,1,1.5,2Zm0,1a.5.5,0,0,0-.5.5v9a.5.5,0,0,0,.5.5h13a.5.5,0,0,0,.5-.5v-9a.5.5,0,0,0-.5-.5Z"/>  
  <!-- 内层矩形 -->  
  <path class="inner-fill" d="M1.5,3a.5.5,0,0,0-.5.5v9a.5.5,0,0,0,.5.5h13a.5.5,0,0,0,.5-.5v-9a.5.5,0,0,0-.5-.5Z"/> <!-- 注意：这里修改了起始点Y坐标为3，以匹配内部矩形的正确位置 -->  
</svg>